<?xml version='1.0' encoding='utf-8'?>
<svg xmlns="http://www.w3.org/2000/svg" xmlns:xlink="http://www.w3.org/1999/xlink" width="104.74" height="62.163" version="1.1" viewBox="0 0 104.73956 62.162852"><defs><radialGradient id="ae" cx="64.3" cy="-30.95" r="50.46" gradientTransform="matrix(1 0 0 -1 0 -61.9)" gradientUnits="userSpaceOnUse"><stop stop-color="#F3A32D" stop-opacity="0" offset="0"/><stop stop-color="#EB982C" stop-opacity=".1294" offset=".1098"/><stop stop-color="#D37B29" stop-opacity=".4863" offset=".302"/><stop stop-color="#B25225" offset=".5216"/></radialGradient><radialGradient id="af" cx="64.4" cy="-64.275" r="64.337" gradientTransform="matrix(1 0 0 -1 0 -128.55)" gradientUnits="userSpaceOnUse"><stop stop-color="#E2E5BD" offset="0"/><stop stop-color="#E3DCB2" offset=".0824"/><stop stop-color="#E5C596" offset=".2235"/><stop stop-color="#E99F6A" offset=".4078"/><stop stop-color="#EE6E33" offset=".6078"/><stop stop-color="#E86C33" stop-opacity=".9725" offset=".6745"/><stop stop-color="#D76732" stop-opacity=".898" offset=".7608"/><stop stop-color="#BB5F31" stop-opacity=".7804" offset=".8667"/><stop stop-color="#955430" stop-opacity=".6157" offset=".9765"/><stop stop-color="#8C5130" stop-opacity=".5765" offset="1"/></radialGradient><linearGradient id="ac" x1="16161" x2="16221" y1="-58.467" y2="-58.467" gradientTransform="matrix(1.6549e-5 1 -1 -.001 .8657 -16221)" gradientUnits="userSpaceOnUse"><stop stop-color="#E2B8B2" offset=".1294"/><stop stop-color="#fff" offset=".9255"/></linearGradient><linearGradient id="ad" x1="-125.33" x2="-64.617" y1="85.944" y2="85.944" gradientTransform="matrix(1.6474e-5 -1 1 -.001 -.00022545 .00044587)" gradientUnits="userSpaceOnUse"><stop stop-color="#AB3D15" offset=".1098"/><stop stop-color="#C8834E" offset=".4588"/><stop stop-color="#E6C588" offset=".8275"/><stop stop-color="#F1DF9F" offset="1"/></linearGradient><linearGradient id="aa" x1="1.7739" x2="27.224" y1="-11.595" y2="-15.02" gradientUnits="userSpaceOnUse"><stop stop-color="#949494" offset="0"/><stop stop-color="#D5D5D5" offset="1"/></linearGradient><linearGradient id="ab" x1="3.8647" x2="10.14" y1="-4.6553" y2="-6.7303" gradientUnits="userSpaceOnUse"><stop stop-color="#9B7C36" offset="0"/><stop stop-color="#E0A858" offset="1"/></linearGradient></defs>
<symbol id="q" transform="translate(-93.035 -63.913)" viewBox="0 -56.65 87.8 56.65">
		<defs>
			<polygon id="u" points="87.8 -11 6.1 0 0 -45.7 81.65 -56.65"/>
		</defs>
		<clipPath id="v">
			<use width="171.7" height="171.8" xlink:href="#u"/>
		</clipPath>
		<g clip-path="url(#v)" fill="#fff" fill-rule="evenodd">
			<path d="m31.65-16.25 8.05 2.6-4.95-36.7c-1.867 0.2-3.85 0.783-5.95 1.75l-1.4 0.7 4.25 31.65z"/>
			<path d="m1.4-35.25 1.25 9.35c5.633 1.967 13.283 4.517 22.95 7.65l-3.65-27.05c-6.2 2.967-13.05 6.317-20.55 10.05z"/>
			<path d="m85.4-26.55c0.733-1.4-0.65-3.05-4.15-4.95l-2.15-1.1 1.2 9.05c2.933-1.167 4.633-2.167 5.1-3z"/>
			<path d="m71.3-19.6-2.4-17.75-4.25-1.9 3.2 24.05c1.2 0.3 2.167 0.784 2.9 1.45 0.433 0.4 0.967 1.017 1.6 1.85l-0.75-5.55c-0.3-0.2-0.583-0.483-0.85-0.85-0.2-0.333-0.017-0.767 0.55-1.3z"/>
			<path d="m66.05-15.5-3.3-24.55-9.95-4.35 4.05 30.35c1.967-0.7 3.05-1.083 3.25-1.15 1-0.3 2.117-0.45 3.35-0.45 1 0 1.867 0.05 2.6 0.15z"/>
			<path d="m82.1-10.2c0.933-0.466 1.467-1.05 1.6-1.75 0.133-0.767-0.25-1.517-1.15-2.25-0.367-0.333-0.733-0.583-1.1-0.75l0.65 4.75z"/>
		</g>
</symbol>
<symbol id="r" transform="translate(-93.035 -63.913)" viewBox="0 -26.65 29 26.65">
		<defs>
			<path id="w" d="m25.2-14.4c-2.034 2.4-4.8 5-8.3 7.8-4.567 3.733-9.067 5.933-13.5 6.6h-0.3c-0.033-0.9 0.067-2.167 0.3-3.8 0.4-3.3 1.2-6.883 2.4-10.75 1.1-3.5 2.083-6.2 2.95-8.1 0.433-0.967 0.767-1.567 1-1.8 2.8 2.4 5.65 4.317 8.55 5.75 2.1 1.034 4.217 1.617 6.35 1.75 1.067 0.034 1.917-0.017 2.55-0.15-0.3 0.633-0.967 1.533-2 2.7z"/>
		</defs>
		<clipPath id="x">
			<use width="171.7" height="171.8" xlink:href="#w"/>
		</clipPath>
		<g clip-path="url(#x)">
			<polygon points="0 -23.15 3.1 0 29 -3.45 25.9 -26.65" fill="url(#aa)" fill-rule="evenodd"/>
		</g>
</symbol>
<symbol id="s" transform="translate(-93.035 -63.913)" viewBox="0 -11.45 14.25 11.45">
		<defs>
			<path id="y" d="m9.15-3.4-0.9 0.25c-1.4 0.167-2.867-0.167-4.4-1-1.5-0.867-1.867-1.6-1.1-2.2 1.233-0.933 3.1-0.9 5.6 0.1s2.767 1.95 0.8 2.85z"/>
		</defs>
		<clipPath id="z">
			<use width="171.7" height="171.8" xlink:href="#y"/>
		</clipPath>
		<g clip-path="url(#z)">
			<polygon points="0 -7.25 2.25 0 14.25 -4.15 11.95 -11.45" fill="url(#ab)" fill-rule="evenodd"/>
		</g>
</symbol>
<symbol id="t" transform="translate(-93.035 -63.913)" viewBox="0 -56.65 87.8 56.65">
				<use transform="translate(93.035 63.913)" y="-56.650002" width="87.800003" height="56.650002" xlink:href="#q"/>
</symbol>
<symbol transform="translate(-93.035 -63.913)" viewBox="0 -61.9 128.6 61.9">
		<path d="m128.05-0.3 0.55 0.3c-0.63-17.233-7.17-31.85-19.6-43.85-12.5-12.033-27.417-18.05-44.75-18.05-17.033 0-31.733 5.816-44.1 17.45-12.367 11.567-19.083 25.767-20.15 42.6 4.967-12.967 13.183-23.467 24.65-31.5 11.7-8.2 24.717-12.3 39.05-12.3 14.667 0 27.917 4.25 39.75 12.75 11.6 8.333 19.8 19.2 24.6 32.6z" fill="url(#ae)" fill-rule="evenodd"/>
</symbol>
<symbol transform="translate(-93.035 -63.913)" viewBox="0 -66.434 119.2 66.434">
		<path d="m115.4-37.25c2.533-6.1 3.8-11.85 3.8-17.25 0-5.367-1.567-8.75-4.7-10.15-2.533-1.133-6.783-1.117-12.75 0.05-7.9 1.9-14.217 3.367-18.95 4.4-8.667 1.833-16.4 2.75-23.2 2.75-6.867 0-14.6-1-23.2-3-9.033-2.367-15.35-3.966-18.95-4.8-6-1.367-10.25-1.55-12.75-0.55-3.133 1.267-4.7 4.583-4.7 9.95 0 5.967 1.267 12.117 3.8 18.45 2.667 6.7 6.434 12.733 11.3 18.1 11.6 12.867 26.433 19.3 44.5 19.3 17.833 0 32.65-6.5 44.45-19.5 4.833-5.333 8.617-11.25 11.35-17.75z" fill="#fff" fill-rule="evenodd"/>
</symbol>
<symbol transform="translate(-93.035 -63.913)" viewBox="0 -128.55 128.8 128.55">
		<path d="m128.8-64.3c0-17.733-6.283-32.883-18.85-45.45-12.6-12.533-27.784-18.8-45.55-18.8-17.8 0-32.983 6.267-45.55 18.8s-18.85 27.683-18.85 45.45 6.283 32.933 18.85 45.5c12.567 12.533 27.75 18.8 45.55 18.8 17.767 0 32.95-6.267 45.55-18.8 12.567-12.567 18.85-27.733 18.85-45.5z" fill="url(#af)" fill-rule="evenodd"/>
</symbol>
<symbol transform="translate(-93.035 -63.913)" viewBox="0 -60.45 119.2 60.45">
		<path d="m104.05-19.5c4.833-5.333 8.617-11.25 11.35-17.75 2.533-6.1 3.8-11.85 3.8-17.25 0-1.8-0.184-3.4-0.55-4.8-2 11.966-7.85 22.6-17.55 31.9-11.434 11-25.267 16.5-41.5 16.5-16.533 0-30.45-5.483-41.75-16.45-9.733-9.433-15.533-20.467-17.4-33.1-0.3 1.3-0.45 2.833-0.45 4.6 0 5.967 1.267 12.117 3.8 18.45 2.667 6.7 6.434 12.733 11.3 18.1 11.6 12.867 26.433 19.3 44.5 19.3 17.833 0 32.65-6.5 44.45-19.5z" fill="url(#ac)" fill-rule="evenodd"/>
</symbol>
<g transform="translate(-93.035 -63.913)">
	<g transform="translate(59.472 -.51282)"><path d="m33.65 100.1c0.067-3.3 0.4-5.966 1-8 0.6-2.566 2.167-4.416 4.7-5.55 2.8-1.2 14.033-5.05 33.7-11.55-0.066-0.933-0.1-1.85-0.1-2.75 0.066-1.767 0.683-3.267 1.85-4.5 1.2-1.2 2.6-1.75 4.2-1.65l1.25 0.15 0.35 0.1 0.4 0.05 0.15 0.05h0.15l1.25 0.35 0.3 0.05 0.6 0.2c2.166 0.7 4.25 1.617 6.25 2.75 2.533-0.6 4.899-0.75 7.1-0.45 1.033 0.167 2.117 0.4 3.25 0.7 1.967 0.5 4.017 1.15 6.15 1.95 0.967 0.367 1.649 0.6 2.05 0.7 0.5 0.133 1.066 0.183 1.7 0.15 1.934 0 3.133-0.133 3.6-0.4l0.35-0.45c1.366-1.733 2.866-2.967 4.5-3.7 2.966-1.366 5.933-1.85 8.899-1.45 2.8 0.367 4.983 1.467 6.55 3.3 2.034 2.233 2.534 6.2 1.5 11.9-0.133 0.867-0.333 1.617-0.6 2.25 1.533 1.267 2.467 2.884 2.8 4.851 0.3 1.399 0.384 3.066 0.25 5-0.133 1.6-0.366 3.033-0.7 4.3-0.5 1.899-1.399 3.483-2.699 4.75-0.967 0.967-2.617 2.116-4.95 3.45-3.066 1.733-8.834 4.467-17.3 8.199l-4.301 1.9-0.149 0.05-14.9 6.45-0.45 0.3c-2.066 1.033-3.267 1.617-3.6 1.75-1.134 0.4-2.2 0.7-3.2 0.9l-1.6 0.25c-1.434 0.2-3 0.184-4.7-0.05-2.333-0.301-4.667-1-7-2.101-4.767-2.267-10.5-5.033-17.2-8.3-7.333-3.566-11.783-5.783-13.35-6.65l-0.55-0.3c-2.367-1.267-4.033-2.366-5-3.3-1.667-1.599-2.5-3.482-2.5-5.649z" fill="#f3d3a5" fill-rule="evenodd"/><path d="m39.5 85.05c2.433-1.066 13.65-4.917 33.65-11.55-0.1-0.967-0.15-1.867-0.15-2.7 0.067-1.833 0.717-3.35 1.95-4.55 1.233-1.233 2.667-1.8 4.3-1.7l1.25 0.15 1.65 0.35 0.65 0.2 0.25 0.05 0.65 0.2c2.066 0.667 4.149 1.583 6.25 2.75 2.434-0.6 4.783-0.75 7.05-0.45 0.967 0.134 2.066 0.367 3.3 0.7 1.934 0.5 3.967 1.15 6.101 1.95 1.533 0.566 2.767 0.85 3.699 0.85 1.934 0 3.134-0.133 3.601-0.4l0.15-0.25 0.15-0.15c1.434-1.767 2.95-3.017 4.55-3.75 3.066-1.367 6.05-1.85 8.95-1.45 2.833 0.367 5.033 1.483 6.6 3.35 2.101 2.2 2.634 6.2 1.601 12-0.134 0.767-0.334 1.483-0.601 2.15 1.534 1.333 2.45 2.967 2.75 4.9 0.334 1.399 0.417 3.083 0.25 5.05-0.133 1.6-0.366 3.033-0.699 4.3-0.5 1.9-1.417 3.5-2.75 4.8-0.967 0.934-2.617 2.084-4.95 3.45-2.634 1.567-8.417 4.317-17.351 8.25l-4.25 1.851-0.149 0.05-14.9 6.5-0.45 0.25c-1.333 0.733-2.533 1.316-3.6 1.75s-2.15 0.75-3.25 0.95l-1.6 0.25c-0.467 0.066-1.167 0.1-2.1 0.1-0.867 0-1.75-0.05-2.65-0.15-2.233-0.3-4.566-1.017-7-2.149-4.267-2-10-4.75-17.2-8.25-7.267-3.566-11.733-5.8-13.4-6.7l-0.55-0.3c-2.367-1.267-4.033-2.367-5-3.3-1.667-1.634-2.517-3.533-2.55-5.7 0-0.767 0.066-1.816 0.2-3.15 0.2-2.033 0.483-3.683 0.85-4.95 0.532-2.569 2.116-4.418 4.749-5.552z" fill="url(#ad)" fill-rule="evenodd"/><path d="m39.5 85.05c2.433-1.066 13.65-4.917 33.65-11.55-0.1-0.967-0.15-1.867-0.15-2.7 0.067-1.833 0.717-3.35 1.95-4.55 1.233-1.233 2.667-1.8 4.3-1.7l1.25 0.15 1.65 0.35 0.65 0.2 0.25 0.05 0.65 0.2c2.066 0.667 4.149 1.583 6.25 2.75 2.434-0.6 4.783-0.75 7.05-0.45 0.967 0.134 2.066 0.367 3.3 0.7 1.934 0.5 3.967 1.15 6.101 1.95 1.533 0.566 2.767 0.85 3.699 0.85 1.934 0 3.134-0.133 3.601-0.4l0.15-0.25 0.15-0.15c1.434-1.767 2.95-3.017 4.55-3.75 3.066-1.367 6.05-1.85 8.95-1.45 2.833 0.367 5.033 1.483 6.6 3.35 2.101 2.2 2.634 6.2 1.601 12-0.134 0.767-0.334 1.483-0.601 2.15 1.534 1.333 2.45 2.967 2.75 4.9 0.334 1.399 0.417 3.083 0.25 5.05-0.133 1.6-0.366 3.033-0.699 4.3-0.5 1.9-1.417 3.5-2.75 4.8-0.967 0.934-2.617 2.084-4.95 3.45-2.634 1.567-8.417 4.317-17.351 8.25l-4.25 1.851-0.149 0.05-14.9 6.5-0.45 0.25c-1.333 0.733-2.533 1.316-3.6 1.75s-2.15 0.75-3.25 0.95l-1.6 0.25c-0.467 0.066-1.167 0.1-2.1 0.1-0.867 0-1.75-0.05-2.65-0.15-2.233-0.3-4.566-1.017-7-2.149-4.267-2-10-4.75-17.2-8.25-7.267-3.566-11.733-5.8-13.4-6.7l-0.55-0.3c-2.367-1.267-4.033-2.367-5-3.3-1.667-1.634-2.517-3.533-2.55-5.7 0-0.767 0.066-1.816 0.2-3.15 0.2-2.033 0.483-3.683 0.85-4.95 0.532-2.569 2.116-4.418 4.749-5.552z" fill="none" stroke="#f3d3a5" stroke-width=".25"/><path d="m39.85 100.85c-0.934-0.767-1.4-1.533-1.4-2.3 0.133-3.166 0.433-5.399 0.9-6.7 0.066-0.866 0.667-1.533 1.8-2 2.8-1.232 15.217-5.466 37.25-12.7l-0.4-2.7c-0.133-2.4-0.2-3.617-0.2-3.65 0-0.333 0.1-0.6 0.3-0.8s0.45-0.3 0.75-0.3l0.85 0.15h0.15l1.7 0.4 0.1 0.05 0.65 0.2c2.233 0.7 4.517 1.767 6.851 3.2 2.833-0.767 5.216-1.017 7.149-0.75 0.9 0.1 1.816 0.283 2.75 0.55 1.667 0.434 3.584 1.05 5.75 1.85 1.134 0.433 1.983 0.717 2.55 0.85 0.834 0.2 1.733 0.3 2.7 0.3 2.434-0.033 4.233-0.316 5.4-0.85 0.733-0.333 1.45-0.95 2.149-1.85 0.9-1.1 1.801-1.866 2.7-2.3 2.233-1 4.4-1.367 6.5-1.1 1.767 0.267 3.05 0.9 3.851 1.9 0.966 0.9 1.083 3.384 0.35 7.45-0.134 0.733-0.316 1.283-0.55 1.65-0.2 0.3-0.634 0.733-1.3 1.3-0.733 0.667-1.65 1.117-2.75 1.35l0.699 0.3c1.9 0.733 3.233 1.333 4 1.8 1.267 0.8 1.967 1.699 2.101 2.699 0.2 0.867 0.25 2.034 0.149 3.5-0.066 1.268-0.233 2.384-0.5 3.351-0.233 0.967-0.683 1.767-1.35 2.399-0.667 0.634-1.983 1.518-3.95 2.65-2.6 1.533-8.233 4.2-16.899 8l-20.25 8.9c-1.233 0.699-2.2 1.183-2.9 1.449-0.967 0.334-1.8 0.567-2.5 0.7-0.3 0.101-0.6 0.15-0.9 0.15l-0.35 0.05c-1.233 0.167-2.45 0.15-3.65-0.05-1.833-0.233-3.75-0.816-5.75-1.75-4.4-2.066-10.083-4.8-17.05-8.2-7.233-3.533-11.65-5.733-13.25-6.6l-0.6-0.351c-1.733-0.932-2.933-1.665-3.6-2.199z" fill="#421804" fill-rule="evenodd"/><path d="m62.8 86.75c13.267-2.467 20.233-3.816 20.9-4.05 3.967-1.3 6.85-2.034 8.649-2.2 1.601-0.167 3.483 0.033 5.65 0.6 1.366 0.367 3.533 1.083 6.5 2.15 1.6 0.567 3.167 0.85 4.7 0.85 3.5 0 5.85-0.817 7.05-2.45 0.533-0.933 0.934-1.617 1.2-2.05 0.5-0.733 1.1-1.267 1.8-1.6 2.467-1.433 4.384-2.517 5.75-3.25 2.533-1.4 4.2-1.883 5-1.45 0.366 0.2 0.517 1.15 0.45 2.85-0.066 1.267-0.2 2.467-0.4 3.6-0.1 0.567-0.233 0.983-0.399 1.25-0.134 0.233-0.483 0.583-1.051 1.05-1.267 1.067-3.566 1.483-6.899 1.25-3.066-0.2-5 0.284-5.8 1.45-0.367 0.533 1.966 1.1 7 1.7 5.466 0.667 8.483 1.383 9.05 2.149 0.399 0.534 0.55 1.617 0.45 3.25-0.067 1.4-0.25 2.667-0.551 3.801-0.199 0.733-0.55 1.333-1.05 1.8-0.6 0.566-1.85 1.399-3.75 2.5-2.866 1.667-9.45 4.733-19.75 9.2-10.1 4.333-15.616 6.717-16.55 7.149-3.2 1.5-5.033 2.3-5.5 2.4-3.3 0.767-6.817 0.267-10.55-1.5-4.6-2.167-10.333-4.95-17.2-8.351-7.167-3.5-11.517-5.683-13.05-6.55-1.633-0.899-2.7-1.5-3.2-1.8-1.2-0.833-1.8-1.533-1.8-2.1 0-0.801 0.083-1.95 0.25-3.45 0.267-2.101 0.583-3.233 0.95-3.4 1.834-0.798 9.218-2.398 22.151-4.798z" fill="#a78343" fill-rule="evenodd"/><path d="m53.75 99.25-3.85-0.65-1 6.101-1.1-0.5 1.05-6.101-1.4-2.149-1.4 0.7-1.1 5.949-0.5-0.3c-0.367-0.133-0.7-0.3-1-0.5l1.2-5.899-1.9-1.051-0.9 6-1.65-1.05 0.9-7 21.55-0.4 16.9 8 4.4 11.8 1.5 6.55c-1.5 0.333-3.117 0.4-4.85 0.2l1.05-7.351-4.6-0.149-1.1 6.35-2.6-1.1 0.6-6.601-3-1.399-1.4 6.149-1.65-0.75 0.55-7.149-1.5-2.8-3.25 1.1-1.5 6-2.8-1.4 1.35-6-4.55-3.45-1.2 0.65-0.8 6.101-1.65-0.75 1.2-7.151z" fill="#8f7139" fill-rule="evenodd"/><path d="m125.05 75.15c-0.066 0.2-0.217 0.367-0.45 0.5-4.633 2.5-5.166 5.083-1.6 7.75-2.434-0.133-3.8-0.183-4.1-0.15-1.4 0.1-2.4 0.6-3 1.5-0.367 0.533 1.966 1.1 7 1.7 5.466 0.667 8.483 1.383 9.05 2.149 0.399 0.534 0.55 1.617 0.45 3.25-0.067 1.4-0.25 2.667-0.551 3.801-0.199 0.733-0.55 1.333-1.05 1.8-0.6 0.566-1.85 1.399-3.75 2.5-2.866 1.667-9.45 4.733-19.75 9.2-10.1 4.333-15.616 6.717-16.55 7.149-1.167 0.7-2.217 1.25-3.15 1.65-1.767 0.767-3.566 1.133-5.399 1.1 0.3-0.3 0.517-0.683 0.65-1.149 0.033-0.134 0.2-1 0.5-2.601 0.533-2.899 0.533-5.8 0-8.7l-1-3.5c9.867-7.133 18.867-13.466 27-19 3.4-0.033 5.7-0.867 6.9-2.5 0.533-0.9 0.934-1.567 1.2-2 0.5-0.733 1.1-1.267 1.8-1.6 0.566-0.267 1.45-0.75 2.65-1.45 1.566-0.933 2.6-1.533 3.1-1.8 0.066 0.068 0.083 0.201 0.05 0.401z" fill="#876930" fill-rule="evenodd"/><path d="m130.4 96.8c1.199-1.366 1.783-3.95 1.75-7.75 0.267 0.7 0.35 1.783 0.25 3.25-0.101 1.233-0.284 2.351-0.551 3.351-0.199 0.733-0.55 1.333-1.05 1.8-0.6 0.566-1.85 1.399-3.75 2.5-2.866 1.667-9.45 4.733-19.75 9.2-10.1 4.333-15.616 6.717-16.55 7.149-1.167 0.7-2.217 1.25-3.15 1.65-1.767 0.767-3.566 1.133-5.399 1.1 0.267-0.3 0.45-0.583 0.55-0.85 0.367-0.033 1.017-0.117 1.95-0.25 1.033-0.2 2.383-0.684 4.05-1.45 1.6-0.7 7.1-3.116 16.5-7.25 7.8-3.4 13.134-5.767 16-7.1 5.033-2.367 8.083-4.15 9.15-5.35z" fill="#795d2b" fill-rule="evenodd"/><path d="m41.5 90.75c3.2-1.366 17.567-6.2 43.1-14.5 3.933-1.3 6.817-2.033 8.65-2.2 1.6-0.167 3.467 0.034 5.6 0.6 1.434 0.367 3.601 1.083 6.5 2.15 1.634 0.6 3.217 0.9 4.75 0.9 3.534 0 5.967-0.633 7.301-1.9 0-0.033 0.483-0.6 1.449-1.7 0.534-0.633 1.15-1.117 1.851-1.45 3.033-1.4 5.7-1.55 8-0.45 2.233 1.1 2.399 2.45 0.5 4.05-1.233 1.067-3.384 1.733-6.45 2-2.767 0.233-4.55 0.934-5.35 2.1-0.467 0.7 0.649 1.65 3.35 2.85 0.233 0.1 2.233 0.867 6 2.3 3 1.233 4.75 2.25 5.25 3.05 0.8 1.4-0.566 3.067-4.1 5-4.733 2.601-16.834 8.033-36.301 16.3-2.699 1.334-4.55 2.117-5.55 2.351-3.3 0.733-6.833 0.217-10.6-1.55-16.4-7.834-26.434-12.75-30.1-14.75-2.267-1.267-3.65-2.117-4.15-2.551-1.3-1.1-1.2-1.966 0.3-2.6z" fill="#dfb768" fill-rule="evenodd"/><path d="m46.05 96.25-1.4-0.75c4.967-1.4 8.6-3.066 10.9-5 3.267-2.733 5.684-4.617 7.25-5.65 2.833-1.9 5.517-3.083 8.05-3.55 1.333-0.233 4.717-0.65 10.15-1.25 4.533-0.466 7.833-1 9.9-1.6 2.1-0.567 4.616-1.867 7.55-3.9l1.3 0.35c-3.167 2.2-6.15 3.767-8.95 4.7-3.767 1.267-8.55 1.95-14.35 2.05-5.567 0.1-9.733 1.184-12.5 3.25-1.633 1.2-3.967 3.333-7 6.4-2.4 1.8-6.033 3.45-10.9 4.95z" fill="#caa455" fill-rule="evenodd"/><path d="m58.15 94.95c-2.967 0.3-5.733 1.383-8.3 3.25l-1-0.5c2.467-1.367 5.316-2.601 8.55-3.7 3.833-1.3 7.483-2.167 10.95-2.6 3.733-0.434 7.9-1.65 12.5-3.65 2.3-1 4.233-1.967 5.8-2.9l4.199-3.1c1.7-1.3 4.967-3.5 9.801-6.6l1.35 0.45c-1.267 0.9-4.25 3.367-8.95 7.4-3.6 3.1-6.483 5.184-8.65 6.25-5.267 2.566-14.017 4.467-26.25 5.7z" fill="#caa455" fill-rule="evenodd"/><path d="m42.75 92.45c1.7-0.4 3.533-1.184 5.5-2.351 0.967-0.566 2.7-1.75 5.2-3.55l8.45-2.85-3.1 2.1c-3.233 2.267-5.767 3.917-7.6 4.95-1.7 0.934-4.017 1.983-6.95 3.15l-1.55 0.5c-0.867-0.5-1.517-0.983-1.95-1.45l2-0.499z" fill="#caa455" fill-rule="evenodd"/><path d="m78.65 78.2 7.9-2.55h0.05c3.434 0.034 6.167-0.533 8.2-1.7l1.2 0.1c-2.233 1.567-4.833 2.667-7.8 3.3-2.4 0.5-5.583 0.783-9.55 0.85z" fill="#caa455" fill-rule="evenodd"/><path d="m119.3 97.7c2.3-4.8 6.233-8.167 11.8-10.101 0.534 0.4 0.884 0.834 1.051 1.301-3.567 1-6.233 3.183-8 6.55l-4.85 2.25z" fill="#caa455" fill-rule="evenodd"/><path d="m75.95 99.15c3.966-0.101 8.216-1.483 12.75-4.15 2.899-1.733 6.149-4.184 9.75-7.35 2.934-2.667 5.149-4.583 6.649-5.75 2.567-2.033 5.051-3.483 7.45-4.35 1.834-0.167 3.217-0.583 4.15-1.25 4.6-1.4 8.233-2.883 10.899-4.45 0.567 0.167 1.067 0.367 1.5 0.6l-1.149 0.75c-1.7 1.133-4.917 2.417-9.65 3.85-4.767 1.434-8.083 2.75-9.95 3.95-1.866 1.2-4.483 3.517-7.85 6.95-3.467 3.566-6.233 6.05-8.3 7.45-2.634 1.833-6.617 3.35-11.95 4.55-2.233 0.5-5.783 1.116-10.65 1.85-1.733 0.267-3.717 1.283-5.95 3.05l-2.9-1.399c1.733-1.134 3.767-2.066 6.1-2.8 2.901-0.901 5.934-1.401 9.101-1.501z" fill="#caa455" fill-rule="evenodd"/><path d="m110.8 90.55c2.634-3.233 5.634-5.833 9-7.8l3.101 1.35c-2.2 1.267-4.867 3.383-8 6.35-1.767 1.7-4.551 4.399-8.351 8.1-3.366 3.134-6.967 5.233-10.8 6.3-4.767 0.9-8.667 1.684-11.7 2.351-2.533 0.566-4.883 1.85-7.05 3.85l-3.1-1.35c2.033-1.434 4.783-2.617 8.25-3.55 2-0.567 5.216-1.367 9.65-2.4 4.167-1.133 7.95-2.967 11.351-5.5 2.599-1.968 5.149-4.534 7.649-7.701z" fill="#caa455" fill-rule="evenodd"/><path d="m65.1 97.7c-4.2 0.399-7.583 1.383-10.15 2.95l-1.75-0.85c3.233-2.066 7.917-3.483 14.05-4.25 5.833-0.7 11.25-2.116 16.25-4.25 5.3-2.3 9.45-5.133 12.45-8.5 2.533-2.9 5.25-5.05 8.149-6.45 1.5 0.533 2.584 0.883 3.25 1.05-2.833 1.333-5.883 3.4-9.149 6.2-3.867 3.3-6.767 5.55-8.7 6.75-3.866 2.367-7.75 4.101-11.65 5.2-3.233 0.9-7.483 1.617-12.75 2.15z" fill="#caa455" fill-rule="evenodd"/><path d="m126.3 85.35 1.9 0.75c-2.533 0.834-5.316 2.768-8.351 5.801-2.433 2.5-4.75 5.383-6.949 8.649-13.067 5.667-20.167 8.767-21.301 9.3-1.6 0.834-2.85 1.384-3.75 1.65-2.133 0.667-4.333 0.867-6.6 0.6 2.4-1.866 5.967-3.383 10.7-4.55 5.267-1.3 8.566-2.316 9.899-3.05 5.034-2.833 10.834-7.917 17.4-15.25 1.568-1.833 3.919-3.133 7.052-3.9z" fill="#caa455" fill-rule="evenodd"/><path d="m93.6 97.45c3.233-1.2 7.2-3.867 11.9-8 4.7-4.5 7.65-7.317 8.85-8.45 1.934-1.8 7.134-4.383 15.601-7.75 0.333 0.434 0.45 0.9 0.35 1.4-1.7 0.3-3.3 0.8-4.8 1.5-1.3 0.667-2.517 1.383-3.65 2.15-2.233 0.233-3.716 0.917-4.449 2.05-0.167 0.267-0.067 0.617 0.3 1.05-3.467 2.767-7.467 6.4-12 10.9-3.334 3.4-6.717 5.834-10.15 7.3-2.633 1.134-7.033 2.301-13.2 3.5-4.967 0.967-8.767 2.7-11.4 5.2l-2.7-1.3c3.8-1.7 8.267-3.467 13.4-5.3 2.831-1.033 6.815-2.45 11.948-4.25z" fill="#caa455" fill-rule="evenodd"/><path d="m64 89.9c-0.167-0.167-0.25-0.417-0.25-0.75 0-0.733 0.383-1.601 1.15-2.601s1.617-1.733 2.55-2.2c1.5-0.767 3.716-1.233 6.65-1.4 3.967-0.233 6.55-0.117 7.75 0.35 1.233 0.5 0.9 1.3-1 2.4-2 1.167-4.317 2.167-6.95 3-2.733 0.866-4.55 1.149-5.45 0.85-1-0.333-1.15-1.066-0.45-2.2 0.7-1.133 1.883-1.899 3.55-2.3 1.967-0.433 3.35-0.65 4.15-0.65 1-0.033 1.433 0.233 1.3 0.8-0.233 0.767-1.367 1.3-3.4 1.6 1.733-0.399 2.117-0.767 1.15-1.1-0.767-0.267-1.533-0.284-2.3-0.05-0.833 0.233-1.4 0.683-1.7 1.35-0.333 0.667 0.017 0.983 1.05 0.95 1.034-0.033 2.367-0.4 4-1.101 2.067-0.866 3.217-1.383 3.45-1.55 0.533-0.366 0.317-0.733-0.65-1.1-1.167-0.434-2.583-0.567-4.25-0.4-1.934 0.233-3.95 0.85-6.05 1.85-1.066 0.534-2.1 1.4-3.1 2.6-0.5 0.602-0.9 1.152-1.2 1.652z" fill="#caa455" fill-rule="evenodd"/><use transform="matrix(1 0 0 -1 211.13 5.587)" y="-11.45" width="14.25" height="11.45" xlink:href="#s"/><use transform="matrix(1 0 0 -1 139.68 -1.8632)" y="-56.650002" width="87.800003" height="56.650002" enable-background="new" opacity=".0898" xlink:href="#t"/><path d="m79.25 77.85 5.35-1.6 5.75 4.6c4.167 3.333 7.051 5.7 8.65 7.1 1.934 1.7 3.967 4.217 6.1 7.55 2.134 3.367 3.117 5.634 2.95 6.8-0.166 1.233-0.649 2.367-1.45 3.4-0.833 1.033-1.767 1.616-2.8 1.75-1.166 0.133-1.883-0.15-2.149-0.851l-0.101-1.149c0.434-0.2 0.95-0.533 1.55-1 0.567-0.434 0.733-1.333 0.5-2.7-0.233-1.533-0.933-2.65-2.1-3.35-0.7-0.434-1.1-0.801-1.2-1.101v-1.6c-0.033-0.7-0.383-1.217-1.05-1.55l-1.05-0.299c-1 0.367-2.617 0.817-4.851 1.351-1.399 0.366-3.199 0.633-5.399 0.8l-2.85 0.199-2.1-4.85c-0.867-2-1.75-4.85-2.65-8.55l-1.1-4.95z" fill="#6b4024" fill-rule="evenodd"/><path d="m85.4 95.3 0.649-5 4.4-4.4 5.649 0.45c3.834 0.4 5.917 0.784 6.25 1.15 0.567 0.634 0.7 1.467 0.4 2.5-0.134 0.5-0.333 0.95-0.6 1.35-0.634 0.667-3.75 1.617-9.351 2.851-2.566 0.566-4.566 0.917-6 1.05l-1.397 0.049z" fill="#7a7a7a" fill-rule="evenodd"/><path d="m89.6 91.25c-0.066 0.233-0.233 0.8-0.5 1.7-0.1 0.866 0.15 1.483 0.75 1.85-1.5 0.3-2.683 0.467-3.55 0.5h-0.9l0.449-3.649 3.751-0.401z" fill="#979797" fill-rule="evenodd"/><use transform="matrix(1 0 0 -1 168.68 6.9371)" y="-26.65" width="29" height="26.65" xlink:href="#r"/><path d="m78.75 70.85 4.05 1c3.334 1.167 6.584 3.033 9.75 5.6 3.5 2.8 6.267 5.4 8.3 7.8 1.034 1.167 1.7 2.066 2 2.7l-0.85-0.15c-1.667-2.167-2.9-3.683-3.7-4.55-2.467-2.733-5.05-5.066-7.75-7-2.767-1.967-5.366-3.4-7.8-4.3-1.1-0.4-2.433-0.733-4-1v-0.1z" fill="#ececec" fill-rule="evenodd"/><path d="m78.75 70.85 0.9 0.15c0.733 0.133 1.533 0.333 2.4 0.6-0.066 3.733 1.017 8.467 3.25 14.2 0.967 2.367 2.267 4.567 3.9 6.601-1.5 1.033-2.767 2-3.8 2.899-0.233-0.233-0.567-0.833-1-1.8-0.867-1.9-1.85-4.6-2.95-8.1-1.2-3.867-2-7.45-2.4-10.75l-0.3-3.8z" fill="#c7c7c7" fill-rule="evenodd"/><polygon points="79.75 78.8 79.5 77.45 82.7 77.25 82.9 78.2" fill="#e4e4e4" fill-rule="evenodd"/><path d="m78.85 72.85 3.25 0.15c0.066 1 0.183 1.983 0.35 2.95l-3.2 0.15c-0.233-1.467-0.367-2.55-0.4-3.25z" fill="#e4e4e4" fill-rule="evenodd"/><path d="m88.25 91.15c-1.2 0.866-2.35 1.933-3.45 3.199l-0.95-2.05c1.1-0.866 2.266-1.683 3.5-2.45l0.9 1.301z" fill="#e4e4e4" fill-rule="evenodd"/><polygon points="81 83.95 80.15 80.65 83.25 79.55 84.1 82.45" fill="#e4e4e4" fill-rule="evenodd"/><polygon points="85.65 86.6 82.5 88.65 81.55 85.7 84.45 83.5" fill="#e4e4e4" fill-rule="evenodd"/><path d="m99.25 93.45-1.25-1.55v-2.3l1.05 0.15c0.8 0.134 1.4 0.184 1.8 0.15l2.5 0.699-0.149 1.45-1.45 0.65c-0.566 0.267-1.15 0.467-1.75 0.6l-0.75 0.151z" fill="#909090" fill-rule="evenodd"/><path d="m98 89.6 0.7-0.3c0.6-0.233 1.217-0.416 1.85-0.55 0.566-0.1 1.084-0.116 1.55-0.05l1 1.399 0.25 0.5c-0.767 0.034-1.5 0.15-2.199 0.351l-1.75 0.5-1.4-1.85z" fill="#b3b3b3" fill-rule="evenodd"/><path d="m98.85 93.65 0.45-2.85 1 0.101c0.8 0.1 1.517 0.233 2.15 0.399 1 0.267 1.866 1.05 2.6 2.351l3.7 5.899-0.1 2.601c-0.4 1.899-1.4 3.166-3 3.8-2.834 1.167-4.217 0.783-4.15-1.15 0.033-1.566 0.4-2.616 1.1-3.149 0.601-0.467 0.867-0.95 0.801-1.45-0.034-0.467-0.551-1.05-1.551-1.75-0.899-0.634-1.316-1.134-1.25-1.5 0.267-1.066 0.051-1.934-0.649-2.601l-1.101-0.7z" fill="#8e5b2c" fill-rule="evenodd"/><path d="m105.5 100.8c0.934-1 1.783-1.783 2.55-2.35l1.4 1.1-0.25 2.851c-0.467 2-1.517 3.25-3.15 3.75-1.899 0.6-3.217 0.666-3.95 0.199-0.199-0.6-0.216-1.399-0.05-2.399 0.134-0.833 0.3-1.384 0.5-1.65 0.2-0.233 0.75-0.55 1.65-0.95 0.467-0.201 0.9-0.384 1.3-0.551z" fill="#6e4523" fill-rule="evenodd"/><path d="m100.5 91.8c-0.233-0.233-0.55-0.467-0.95-0.7-0.533-0.3-0.3-0.633 0.7-1 1.033-0.366 1.983-0.466 2.85-0.3 0.967 0.2 1.851 0.7 2.65 1.5 0.967 1.033 1.95 2.667 2.95 4.9 1.1 2.467 1.066 4.399-0.101 5.8-1.166 1.434-3.149 1.833-5.949 1.2-0.834-0.167-0.884-0.75-0.15-1.75 1.134-1.267 1.884-2.184 2.25-2.75 0.467-0.7 0.283-1.283-0.55-1.75-1.467-0.767-2.25-1.2-2.351-1.3-0.399-0.434-0.55-0.95-0.449-1.551 0.133-0.6 0.083-1.033-0.15-1.3-0.366-0.499-0.616-0.832-0.75-0.999z" fill="#a47244" fill-rule="evenodd"/><path d="m103.45 100.25c0.5-0.5 0.883-0.95 1.149-1.35-0.033 0.699-0.183 1.399-0.449 2.1-0.167 0.5-0.217 1.3-0.15 2.4l-0.9-0.101c0.067-1.233 0.183-2.249 0.35-3.049z" fill="#c2854f" fill-rule="evenodd"/><path d="m99.95 90.2c1.033 1.033 1.684 1.816 1.95 2.35l2.55 4.55-1.05-0.5c-0.367-1.3-0.834-2.232-1.4-2.8l-0.5-0.6c-0.066-0.2-0.15-0.333-0.25-0.4l-0.15-0.149c-0.5-0.934-1.033-1.65-1.6-2.15l0.45-0.301z" fill="#c2854f" fill-rule="evenodd"/><path d="m109.05 97.9-0.05-1.05c0.8 2.268 0.616 4.034-0.55 5.301 0.4-1.534 0.6-2.951 0.6-4.251z" fill="#c2854f" fill-rule="evenodd"/><path d="m102.45 91.3c0.399 0.367 0.899 0.8 1.5 1.3 0.434 0.4 0.717 0.867 0.85 1.4 0.066 0.233 0.283 0.717 0.65 1.45 0.3 0.533 0.45 1.149 0.45 1.85 0 0.467-0.117 1.417-0.351 2.851-0.2 1.5-0.316 2.6-0.35 3.3h-0.65c0-0.634 0.05-1.25 0.15-1.851 0.366-1.399 0.6-2.466 0.7-3.199 0.166-1.267-0.034-2.25-0.601-2.95-2.2-2.634-3.55-4.4-4.05-5.3l-0.1-0.2 0.6-0.101c0.335 0.534 0.735 1.017 1.202 1.45z" fill="#c2854f" fill-rule="evenodd"/><path d="m105.45 92c0.967 0.7 1.517 1.117 1.649 1.25 0.601 0.634 0.967 1.7 1.101 3.2 0.033 0.5-0.084 1.566-0.351 3.2-0.3 1.633-0.416 2.699-0.35 3.199l-0.65 0.301c0-1.134 0.117-2.267 0.351-3.4 0.733-3.4 0.6-5.517-0.4-6.35-0.967-0.767-1.717-1.367-2.25-1.801-0.899-0.732-1.45-1.333-1.649-1.8h0.199l0.351 0.101 0.3 0.5c0.332 0.5 0.899 1.034 1.699 1.6z" fill="#c2854f" fill-rule="evenodd"/><path d="m102.55 90.1l1.7 1.7c0.667 0.767 1.066 1.384 1.2 1.851 0.066 0.267 0.399 0.883 1 1.85 0.467 0.767 0.684 1.417 0.649 1.95 0 0.267-0.149 1.184-0.449 2.75-0.267 1.467-0.384 2.5-0.351 3.1l-0.6 0.101c0-0.7 0.1-1.5 0.3-2.4 0.667-2.9 0.634-4.8-0.1-5.7-0.233-0.3-0.467-0.767-0.7-1.399-0.2-0.533-0.533-1.017-1-1.45-1.101-1-1.917-1.9-2.45-2.7h0.55l0.251 0.347z" fill="#c2854f" fill-rule="evenodd"/><path d="m104.1 90.4-0.15-0.3 0.45 0.2c0.433 0.567 1.033 1.084 1.8 1.55l0.05 0.051 0.7 0.949c-0.767-0.5-1.334-0.883-1.7-1.149-0.6-0.401-0.983-0.834-1.15-1.301z" fill="#c2854f" fill-rule="evenodd"/><path d="m107.55 101.45c-0.5 0.8-1.383 1.066-2.649 0.8-0.867-0.167-1.034-0.616-0.5-1.35 0.5-0.733 1.216-1.033 2.149-0.9 1.134 0.167 1.467 0.65 1 1.45z" fill="#6e4523" fill-rule="evenodd"/><path d="m107.7 100.95c-0.033 0.434-0.3 0.783-0.8 1.05-0.567 0.333-1.233 0.417-2 0.25-0.5-0.1-0.75-0.35-0.75-0.75 0.399-0.566 1.116-0.9 2.149-1 0.501 0 0.968 0.15 1.401 0.45z" fill="#b1b1b1" fill-rule="evenodd"/><path d="m107.7 100.95c-0.033 0.434-0.3 0.783-0.8 1.05-0.567 0.333-1.233 0.417-2 0.25-0.334-0.1-0.551-0.25-0.65-0.45 0.7 0.467 1.384 0.434 2.05-0.1 0.4-0.3 0.7-0.634 0.9-1l0.5 0.25z" fill="#7d7d7d" fill-rule="evenodd"/><path d="m105.5 100.85c0.267-0.166 0.517-0.183 0.75-0.05 0.366 0.2 0.333 0.351-0.1 0.45-0.467 0.134-0.767 0.134-0.9 0-0.1-0.133-0.017-0.267 0.25-0.4z" fill="#fff" fill-rule="evenodd"/><path d="m106.95 93.95c-0.066-0.033-0.134-0.066-0.2-0.101-0.134-0.033-0.25-0.017-0.35 0.051-0.233 0.1-0.167 0.399 0.199 0.899 0.101 0.167 0.184 0.217 0.25 0.15 0.067-0.101 0.067-0.2 0-0.3-0.033-0.101-0.066-0.117-0.1-0.051-0.033 0.034-0.05 0.067-0.05 0.101-0.134-0.167-0.167-0.316-0.101-0.45 0.067-0.1 0.167-0.066 0.301 0.1 0.166 0.2 0.267 0.434 0.3 0.7 0.033 0.3-0.033 0.45-0.2 0.45s-0.35-0.167-0.55-0.5-0.351-0.65-0.45-0.95c-0.066-0.3-0.017-0.467 0.15-0.5 0.235 1e-3 0.501 0.135 0.801 0.401z" fill="#c2854f" fill-rule="evenodd"/></g>
</g>
</svg>